<mxfile host="65bd71144e">
    <diagram id="n5Tppdjr3bkBUwbVPka-" name="Page-1">
        <mxGraphModel dx="814" dy="478" grid="1" gridSize="10" guides="1" tooltips="1" connect="1" arrows="1" fold="1" page="1" pageScale="1" pageWidth="827" pageHeight="1169" math="0" shadow="0">
            <root>
                <mxCell id="0"/>
                <mxCell id="1" parent="0"/>
                <mxCell id="3" value="&lt;p dir=&quot;ltr&quot; id=&quot;yui_3_17_2_1_1667220075283_19&quot; style=&quot;box-sizing: border-box; margin-top: 0px; margin-bottom: 1rem; color: rgb(55, 58, 60); font-size: 15px; font-style: normal; letter-spacing: normal; text-align: left; text-indent: 0px; text-transform: none; word-spacing: 0px; background-color: rgb(255, 255, 255);&quot;&gt;&lt;/p&gt;&lt;p dir=&quot;ltr&quot; id=&quot;yui_3_17_2_1_1667220075283_19&quot; style=&quot;box-sizing: border-box ; margin-top: 0px ; margin-bottom: 1rem ; color: rgb(55 , 58 , 60) ; font-size: 15px ; background-color: rgb(255 , 255 , 255)&quot;&gt;A transport company has a fleet of buses available, which are distributed on different routes.&amp;nbsp;&lt;/p&gt;&lt;p dir=&quot;ltr&quot; style=&quot;box-sizing: border-box ; margin-top: 0px ; margin-bottom: 1rem ; color: rgb(55 , 58 , 60) ; font-size: 15px ; background-color: rgb(255 , 255 , 255)&quot;&gt;The company wants to create a database to keep information about these routes.&amp;nbsp;&lt;/p&gt;&lt;p dir=&quot;ltr&quot; style=&quot;box-sizing: border-box ; margin-top: 0px ; margin-bottom: 1rem ; color: rgb(55 , 58 , 60) ; font-size: 15px ; background-color: rgb(255 , 255 , 255)&quot;&gt;&lt;span style=&quot;box-sizing: border-box;&quot;&gt;A route&lt;/span&gt;&amp;nbsp;is identified by a code. The total distance (in km.), the source and the destination of each route are stored.&amp;nbsp;&lt;/p&gt;&lt;p dir=&quot;ltr&quot; style=&quot;box-sizing: border-box ; margin-top: 0px ; margin-bottom: 1rem ; color: rgb(55 , 58 , 60) ; font-size: 15px ; background-color: rgb(255 , 255 , 255)&quot;&gt;Besides, each&amp;nbsp;&lt;span style=&quot;box-sizing: border-box;&quot;&gt;bus&lt;/span&gt;&amp;nbsp;has a license plate number, a model, its capacity (number of passengers) and the name of its driver.&amp;nbsp;&lt;/p&gt;&lt;p dir=&quot;ltr&quot; style=&quot;box-sizing: border-box ; margin-top: 0px ; margin-bottom: 1rem ; color: rgb(55 , 58 , 60) ; font-size: 15px ; background-color: rgb(255 , 255 , 255)&quot;&gt;We assume that a bus can only be covering one route. Routes cover several cities. Weâ€™ll store the name of the city, the address and the telephone number of the&lt;span style=&quot;box-sizing: border-box;&quot;&gt;&amp;nbsp;bus station&lt;/span&gt;.&amp;nbsp;&lt;/p&gt;&lt;p dir=&quot;ltr&quot; style=&quot;box-sizing: border-box ; margin-top: 0px ; margin-bottom: 1rem ; color: rgb(55 , 58 , 60) ; font-size: 15px ; background-color: rgb(255 , 255 , 255)&quot;&gt;To keep the stops organized, each bus stop has an order number. This number can be different depending on the route the city belongs to (one city can belong to several routes).&lt;/p&gt;&lt;div&gt;&lt;br&gt;&lt;/div&gt;" style="text;whiteSpace=wrap;html=1;fontStyle=0" vertex="1" parent="1">
                    <mxGeometry x="10" y="20" width="800" height="250" as="geometry"/>
                </mxCell>
                <mxCell id="4" value="Actor" style="shape=umlActor;verticalLabelPosition=bottom;verticalAlign=top;html=1;outlineConnect=0;" vertex="1" parent="1">
                    <mxGeometry x="395" y="480" width="30" height="60" as="geometry"/>
                </mxCell>
                <mxCell id="5" value="route" style="ellipse;shape=cloud;whiteSpace=wrap;html=1;" vertex="1" parent="1">
                    <mxGeometry x="425" y="390" width="120" height="80" as="geometry"/>
                </mxCell>
                <mxCell id="6" value="bus" style="ellipse;shape=cloud;whiteSpace=wrap;html=1;" vertex="1" parent="1">
                    <mxGeometry x="275" y="390" width="120" height="80" as="geometry"/>
                </mxCell>
                <mxCell id="7" value="stops" style="ellipse;shape=cloud;whiteSpace=wrap;html=1;" vertex="1" parent="1">
                    <mxGeometry x="270" y="300" width="120" height="80" as="geometry"/>
                </mxCell>
                <mxCell id="8" value="city" style="ellipse;shape=cloud;whiteSpace=wrap;html=1;" vertex="1" parent="1">
                    <mxGeometry x="425" y="300" width="120" height="80" as="geometry"/>
                </mxCell>
            </root>
        </mxGraphModel>
    </diagram>
    <diagram id="8ZmKV5mJklq9YJjTKKoa" name="Page-2">
        <mxGraphModel dx="708" dy="416" grid="1" gridSize="10" guides="1" tooltips="1" connect="1" arrows="1" fold="1" page="1" pageScale="1" pageWidth="827" pageHeight="1169" math="0" shadow="0">
            <root>
                <mxCell id="lah_pQtBGlxhOlgIQHSt-0"/>
                <mxCell id="lah_pQtBGlxhOlgIQHSt-1" parent="lah_pQtBGlxhOlgIQHSt-0"/>
                <mxCell id="p0tFL5asEmtsyM4A4p6G-10" style="edgeStyle=none;html=1;entryX=0.5;entryY=1;entryDx=0;entryDy=0;" edge="1" parent="lah_pQtBGlxhOlgIQHSt-1" source="lah_pQtBGlxhOlgIQHSt-2" target="p0tFL5asEmtsyM4A4p6G-7">
                    <mxGeometry relative="1" as="geometry"/>
                </mxCell>
                <mxCell id="p0tFL5asEmtsyM4A4p6G-14" style="edgeStyle=none;html=1;" edge="1" parent="lah_pQtBGlxhOlgIQHSt-1" source="lah_pQtBGlxhOlgIQHSt-2" target="p0tFL5asEmtsyM4A4p6G-13">
                    <mxGeometry relative="1" as="geometry"/>
                </mxCell>
                <mxCell id="p0tFL5asEmtsyM4A4p6G-26" style="edgeStyle=none;html=1;entryX=0.5;entryY=1;entryDx=0;entryDy=0;" edge="1" parent="lah_pQtBGlxhOlgIQHSt-1" source="lah_pQtBGlxhOlgIQHSt-2" target="p0tFL5asEmtsyM4A4p6G-23">
                    <mxGeometry relative="1" as="geometry"/>
                </mxCell>
                <mxCell id="p0tFL5asEmtsyM4A4p6G-28" style="edgeStyle=none;html=1;entryX=1;entryY=0.5;entryDx=0;entryDy=0;" edge="1" parent="lah_pQtBGlxhOlgIQHSt-1" source="lah_pQtBGlxhOlgIQHSt-2" target="p0tFL5asEmtsyM4A4p6G-27">
                    <mxGeometry relative="1" as="geometry"/>
                </mxCell>
                <mxCell id="tCdX5tLK0zfuRMB2i2x7-18" style="edgeStyle=none;html=1;entryX=1.014;entryY=0.328;entryDx=0;entryDy=0;entryPerimeter=0;" edge="1" parent="lah_pQtBGlxhOlgIQHSt-1" source="lah_pQtBGlxhOlgIQHSt-2" target="tCdX5tLK0zfuRMB2i2x7-16">
                    <mxGeometry relative="1" as="geometry"/>
                </mxCell>
                <mxCell id="lah_pQtBGlxhOlgIQHSt-2" value="stops" style="rounded=1;whiteSpace=wrap;html=1;" vertex="1" parent="lah_pQtBGlxhOlgIQHSt-1">
                    <mxGeometry x="110" y="120" width="120" height="60" as="geometry"/>
                </mxCell>
                <mxCell id="p0tFL5asEmtsyM4A4p6G-11" style="edgeStyle=none;html=1;" edge="1" parent="lah_pQtBGlxhOlgIQHSt-1" source="p0tFL5asEmtsyM4A4p6G-4" target="p0tFL5asEmtsyM4A4p6G-8">
                    <mxGeometry relative="1" as="geometry"/>
                </mxCell>
                <mxCell id="p0tFL5asEmtsyM4A4p6G-25" style="edgeStyle=none;html=1;entryX=0.5;entryY=1;entryDx=0;entryDy=0;" edge="1" parent="lah_pQtBGlxhOlgIQHSt-1" source="p0tFL5asEmtsyM4A4p6G-4" target="p0tFL5asEmtsyM4A4p6G-24">
                    <mxGeometry relative="1" as="geometry"/>
                </mxCell>
                <mxCell id="p0tFL5asEmtsyM4A4p6G-4" value="route" style="rounded=1;whiteSpace=wrap;html=1;" vertex="1" parent="lah_pQtBGlxhOlgIQHSt-1">
                    <mxGeometry x="354" y="120" width="120" height="60" as="geometry"/>
                </mxCell>
                <mxCell id="p0tFL5asEmtsyM4A4p6G-12" style="edgeStyle=none;html=1;entryX=0.5;entryY=1;entryDx=0;entryDy=0;" edge="1" parent="lah_pQtBGlxhOlgIQHSt-1" source="p0tFL5asEmtsyM4A4p6G-5" target="p0tFL5asEmtsyM4A4p6G-9">
                    <mxGeometry relative="1" as="geometry"/>
                </mxCell>
                <mxCell id="p0tFL5asEmtsyM4A4p6G-21" style="edgeStyle=none;html=1;entryX=1;entryY=0.5;entryDx=0;entryDy=0;" edge="1" parent="lah_pQtBGlxhOlgIQHSt-1" source="p0tFL5asEmtsyM4A4p6G-5" target="p0tFL5asEmtsyM4A4p6G-18">
                    <mxGeometry relative="1" as="geometry"/>
                </mxCell>
                <mxCell id="p0tFL5asEmtsyM4A4p6G-30" style="edgeStyle=none;html=1;entryX=0.5;entryY=1;entryDx=0;entryDy=0;" edge="1" parent="lah_pQtBGlxhOlgIQHSt-1" source="p0tFL5asEmtsyM4A4p6G-5" target="p0tFL5asEmtsyM4A4p6G-29">
                    <mxGeometry relative="1" as="geometry"/>
                </mxCell>
                <mxCell id="p0tFL5asEmtsyM4A4p6G-33" style="edgeStyle=none;html=1;entryX=0;entryY=1;entryDx=0;entryDy=0;" edge="1" parent="lah_pQtBGlxhOlgIQHSt-1" source="p0tFL5asEmtsyM4A4p6G-5" target="p0tFL5asEmtsyM4A4p6G-31">
                    <mxGeometry relative="1" as="geometry"/>
                </mxCell>
                <mxCell id="p0tFL5asEmtsyM4A4p6G-34" style="edgeStyle=none;html=1;entryX=0;entryY=0.5;entryDx=0;entryDy=0;" edge="1" parent="lah_pQtBGlxhOlgIQHSt-1" source="p0tFL5asEmtsyM4A4p6G-5" target="p0tFL5asEmtsyM4A4p6G-32">
                    <mxGeometry relative="1" as="geometry"/>
                </mxCell>
                <mxCell id="K5pDE7Mk6igok8mW73R9-0" style="edgeStyle=none;html=1;entryX=0;entryY=0;entryDx=0;entryDy=0;" edge="1" parent="lah_pQtBGlxhOlgIQHSt-1" source="p0tFL5asEmtsyM4A4p6G-5" target="p0tFL5asEmtsyM4A4p6G-35">
                    <mxGeometry relative="1" as="geometry"/>
                </mxCell>
                <mxCell id="p0tFL5asEmtsyM4A4p6G-5" value="bus" style="rounded=1;whiteSpace=wrap;html=1;" vertex="1" parent="lah_pQtBGlxhOlgIQHSt-1">
                    <mxGeometry x="600" y="120" width="120" height="60" as="geometry"/>
                </mxCell>
                <mxCell id="p0tFL5asEmtsyM4A4p6G-7" value="id" style="ellipse;whiteSpace=wrap;html=1;" vertex="1" parent="lah_pQtBGlxhOlgIQHSt-1">
                    <mxGeometry x="110" y="60" width="50" height="40" as="geometry"/>
                </mxCell>
                <mxCell id="p0tFL5asEmtsyM4A4p6G-8" value="id" style="ellipse;whiteSpace=wrap;html=1;" vertex="1" parent="lah_pQtBGlxhOlgIQHSt-1">
                    <mxGeometry x="354" y="60" width="50" height="40" as="geometry"/>
                </mxCell>
                <mxCell id="p0tFL5asEmtsyM4A4p6G-9" value="id" style="ellipse;whiteSpace=wrap;html=1;" vertex="1" parent="lah_pQtBGlxhOlgIQHSt-1">
                    <mxGeometry x="600" y="60" width="50" height="40" as="geometry"/>
                </mxCell>
                <mxCell id="p0tFL5asEmtsyM4A4p6G-15" style="edgeStyle=none;html=1;entryX=0;entryY=0.5;entryDx=0;entryDy=0;" edge="1" parent="lah_pQtBGlxhOlgIQHSt-1" source="p0tFL5asEmtsyM4A4p6G-13" target="p0tFL5asEmtsyM4A4p6G-4">
                    <mxGeometry relative="1" as="geometry"/>
                </mxCell>
                <mxCell id="p0tFL5asEmtsyM4A4p6G-13" value="is part of" style="rhombus;whiteSpace=wrap;html=1;" vertex="1" parent="lah_pQtBGlxhOlgIQHSt-1">
                    <mxGeometry x="250" y="110" width="80" height="80" as="geometry"/>
                </mxCell>
                <mxCell id="p0tFL5asEmtsyM4A4p6G-22" style="edgeStyle=none;html=1;entryX=1;entryY=0.5;entryDx=0;entryDy=0;" edge="1" parent="lah_pQtBGlxhOlgIQHSt-1" source="p0tFL5asEmtsyM4A4p6G-18" target="p0tFL5asEmtsyM4A4p6G-4">
                    <mxGeometry relative="1" as="geometry"/>
                </mxCell>
                <mxCell id="p0tFL5asEmtsyM4A4p6G-18" value="drives" style="rhombus;whiteSpace=wrap;html=1;" vertex="1" parent="lah_pQtBGlxhOlgIQHSt-1">
                    <mxGeometry x="494" y="110" width="80" height="80" as="geometry"/>
                </mxCell>
                <mxCell id="p0tFL5asEmtsyM4A4p6G-23" value="location" style="ellipse;whiteSpace=wrap;html=1;" vertex="1" parent="lah_pQtBGlxhOlgIQHSt-1">
                    <mxGeometry x="180" y="60" width="50" height="40" as="geometry"/>
                </mxCell>
                <mxCell id="p0tFL5asEmtsyM4A4p6G-24" value="length_in_km" style="ellipse;whiteSpace=wrap;html=1;" vertex="1" parent="lah_pQtBGlxhOlgIQHSt-1">
                    <mxGeometry x="414" y="60" width="86" height="40" as="geometry"/>
                </mxCell>
                <mxCell id="p0tFL5asEmtsyM4A4p6G-27" value="route_id" style="ellipse;whiteSpace=wrap;html=1;" vertex="1" parent="lah_pQtBGlxhOlgIQHSt-1">
                    <mxGeometry x="30" y="90" width="50" height="40" as="geometry"/>
                </mxCell>
                <mxCell id="p0tFL5asEmtsyM4A4p6G-29" value="route_id" style="ellipse;whiteSpace=wrap;html=1;" vertex="1" parent="lah_pQtBGlxhOlgIQHSt-1">
                    <mxGeometry x="660" y="60" width="50" height="40" as="geometry"/>
                </mxCell>
                <mxCell id="p0tFL5asEmtsyM4A4p6G-31" value="brand" style="ellipse;whiteSpace=wrap;html=1;" vertex="1" parent="lah_pQtBGlxhOlgIQHSt-1">
                    <mxGeometry x="730" y="70" width="50" height="40" as="geometry"/>
                </mxCell>
                <mxCell id="p0tFL5asEmtsyM4A4p6G-32" value="model" style="ellipse;whiteSpace=wrap;html=1;" vertex="1" parent="lah_pQtBGlxhOlgIQHSt-1">
                    <mxGeometry x="740" y="130" width="50" height="40" as="geometry"/>
                </mxCell>
                <mxCell id="p0tFL5asEmtsyM4A4p6G-35" value="driver" style="ellipse;whiteSpace=wrap;html=1;" vertex="1" parent="lah_pQtBGlxhOlgIQHSt-1">
                    <mxGeometry x="730" y="190" width="50" height="40" as="geometry"/>
                </mxCell>
                <mxCell id="tCdX5tLK0zfuRMB2i2x7-2" style="edgeStyle=none;html=1;entryX=1;entryY=0.5;entryDx=0;entryDy=0;" edge="1" parent="lah_pQtBGlxhOlgIQHSt-1" source="tCdX5tLK0zfuRMB2i2x7-0" target="tCdX5tLK0zfuRMB2i2x7-1">
                    <mxGeometry relative="1" as="geometry"/>
                </mxCell>
                <mxCell id="tCdX5tLK0zfuRMB2i2x7-4" style="edgeStyle=none;html=1;entryX=1;entryY=0.5;entryDx=0;entryDy=0;" edge="1" parent="lah_pQtBGlxhOlgIQHSt-1" source="tCdX5tLK0zfuRMB2i2x7-0" target="tCdX5tLK0zfuRMB2i2x7-3">
                    <mxGeometry relative="1" as="geometry"/>
                </mxCell>
                <mxCell id="tCdX5tLK0zfuRMB2i2x7-7" style="edgeStyle=none;html=1;entryX=0.5;entryY=1;entryDx=0;entryDy=0;" edge="1" parent="lah_pQtBGlxhOlgIQHSt-1" source="tCdX5tLK0zfuRMB2i2x7-0" target="tCdX5tLK0zfuRMB2i2x7-6">
                    <mxGeometry relative="1" as="geometry">
                        <mxPoint x="165" y="290" as="targetPoint"/>
                    </mxGeometry>
                </mxCell>
                <mxCell id="tCdX5tLK0zfuRMB2i2x7-0" value="city" style="rounded=1;whiteSpace=wrap;html=1;" vertex="1" parent="lah_pQtBGlxhOlgIQHSt-1">
                    <mxGeometry x="110" y="310" width="120" height="60" as="geometry"/>
                </mxCell>
                <mxCell id="tCdX5tLK0zfuRMB2i2x7-1" value="id" style="ellipse;whiteSpace=wrap;html=1;" vertex="1" parent="lah_pQtBGlxhOlgIQHSt-1">
                    <mxGeometry x="30" y="310" width="50" height="40" as="geometry"/>
                </mxCell>
                <mxCell id="tCdX5tLK0zfuRMB2i2x7-3" value="name" style="ellipse;whiteSpace=wrap;html=1;" vertex="1" parent="lah_pQtBGlxhOlgIQHSt-1">
                    <mxGeometry x="40" y="370" width="50" height="40" as="geometry"/>
                </mxCell>
                <mxCell id="tCdX5tLK0zfuRMB2i2x7-8" style="edgeStyle=none;html=1;" edge="1" parent="lah_pQtBGlxhOlgIQHSt-1" source="tCdX5tLK0zfuRMB2i2x7-6" target="lah_pQtBGlxhOlgIQHSt-2">
                    <mxGeometry relative="1" as="geometry"/>
                </mxCell>
                <mxCell id="tCdX5tLK0zfuRMB2i2x7-6" value="" style="rhombus;whiteSpace=wrap;html=1;" vertex="1" parent="lah_pQtBGlxhOlgIQHSt-1">
                    <mxGeometry x="130" y="200" width="80" height="80" as="geometry"/>
                </mxCell>
                <mxCell id="tCdX5tLK0zfuRMB2i2x7-16" value="city_id" style="ellipse;whiteSpace=wrap;html=1;" vertex="1" parent="lah_pQtBGlxhOlgIQHSt-1">
                    <mxGeometry x="30" y="150" width="50" height="40" as="geometry"/>
                </mxCell>
            </root>
        </mxGraphModel>
    </diagram>
    <diagram id="RDhPMkNLFHwUV4NV2G6V" name="Page-3">
        <mxGraphModel dx="958" dy="562" grid="1" gridSize="10" guides="1" tooltips="1" connect="1" arrows="1" fold="1" page="1" pageScale="1" pageWidth="827" pageHeight="1169" math="0" shadow="0">
            <root>
                <mxCell id="CJqYRixQldHfy-TUdPhN-0"/>
                <mxCell id="CJqYRixQldHfy-TUdPhN-1" parent="CJqYRixQldHfy-TUdPhN-0"/>
                <mxCell id="w3vNCRA3c7-lEFl0p3KB-39" value="city" style="swimlane;fontStyle=0;childLayout=stackLayout;horizontal=1;startSize=30;horizontalStack=0;resizeParent=1;resizeParentMax=0;resizeLast=0;collapsible=1;marginBottom=0;" vertex="1" parent="CJqYRixQldHfy-TUdPhN-1">
                    <mxGeometry x="68" y="60" width="140" height="90" as="geometry"/>
                </mxCell>
                <mxCell id="w3vNCRA3c7-lEFl0p3KB-40" value="id" style="text;strokeColor=none;fillColor=none;align=left;verticalAlign=middle;spacingLeft=4;spacingRight=4;overflow=hidden;points=[[0,0.5],[1,0.5]];portConstraint=eastwest;rotatable=0;" vertex="1" parent="w3vNCRA3c7-lEFl0p3KB-39">
                    <mxGeometry y="30" width="140" height="30" as="geometry"/>
                </mxCell>
                <mxCell id="w3vNCRA3c7-lEFl0p3KB-41" value="name" style="text;strokeColor=none;fillColor=none;align=left;verticalAlign=middle;spacingLeft=4;spacingRight=4;overflow=hidden;points=[[0,0.5],[1,0.5]];portConstraint=eastwest;rotatable=0;" vertex="1" parent="w3vNCRA3c7-lEFl0p3KB-39">
                    <mxGeometry y="60" width="140" height="30" as="geometry"/>
                </mxCell>
                <mxCell id="w3vNCRA3c7-lEFl0p3KB-43" value="stops" style="swimlane;fontStyle=0;childLayout=stackLayout;horizontal=1;startSize=30;horizontalStack=0;resizeParent=1;resizeParentMax=0;resizeLast=0;collapsible=1;marginBottom=0;" vertex="1" parent="CJqYRixQldHfy-TUdPhN-1">
                    <mxGeometry x="248" y="60" width="140" height="150" as="geometry"/>
                </mxCell>
                <mxCell id="w3vNCRA3c7-lEFl0p3KB-44" value="id" style="text;strokeColor=none;fillColor=none;align=left;verticalAlign=middle;spacingLeft=4;spacingRight=4;overflow=hidden;points=[[0,0.5],[1,0.5]];portConstraint=eastwest;rotatable=0;" vertex="1" parent="w3vNCRA3c7-lEFl0p3KB-43">
                    <mxGeometry y="30" width="140" height="30" as="geometry"/>
                </mxCell>
                <mxCell id="w3vNCRA3c7-lEFl0p3KB-45" value="location" style="text;strokeColor=none;fillColor=none;align=left;verticalAlign=middle;spacingLeft=4;spacingRight=4;overflow=hidden;points=[[0,0.5],[1,0.5]];portConstraint=eastwest;rotatable=0;" vertex="1" parent="w3vNCRA3c7-lEFl0p3KB-43">
                    <mxGeometry y="60" width="140" height="30" as="geometry"/>
                </mxCell>
                <mxCell id="w3vNCRA3c7-lEFl0p3KB-47" value="route_id" style="text;strokeColor=none;fillColor=none;align=left;verticalAlign=middle;spacingLeft=4;spacingRight=4;overflow=hidden;points=[[0,0.5],[1,0.5]];portConstraint=eastwest;rotatable=0;" vertex="1" parent="w3vNCRA3c7-lEFl0p3KB-43">
                    <mxGeometry y="90" width="140" height="30" as="geometry"/>
                </mxCell>
                <mxCell id="w3vNCRA3c7-lEFl0p3KB-48" value="city_id" style="text;strokeColor=none;fillColor=none;align=left;verticalAlign=middle;spacingLeft=4;spacingRight=4;overflow=hidden;points=[[0,0.5],[1,0.5]];portConstraint=eastwest;rotatable=0;" vertex="1" parent="w3vNCRA3c7-lEFl0p3KB-43">
                    <mxGeometry y="120" width="140" height="30" as="geometry"/>
                </mxCell>
                <mxCell id="w3vNCRA3c7-lEFl0p3KB-49" value="route" style="swimlane;fontStyle=0;childLayout=stackLayout;horizontal=1;startSize=30;horizontalStack=0;resizeParent=1;resizeParentMax=0;resizeLast=0;collapsible=1;marginBottom=0;" vertex="1" parent="CJqYRixQldHfy-TUdPhN-1">
                    <mxGeometry x="432" y="60" width="140" height="90" as="geometry"/>
                </mxCell>
                <mxCell id="w3vNCRA3c7-lEFl0p3KB-50" value="id" style="text;strokeColor=none;fillColor=none;align=left;verticalAlign=middle;spacingLeft=4;spacingRight=4;overflow=hidden;points=[[0,0.5],[1,0.5]];portConstraint=eastwest;rotatable=0;" vertex="1" parent="w3vNCRA3c7-lEFl0p3KB-49">
                    <mxGeometry y="30" width="140" height="30" as="geometry"/>
                </mxCell>
                <mxCell id="w3vNCRA3c7-lEFl0p3KB-51" value="route_in_km" style="text;strokeColor=none;fillColor=none;align=left;verticalAlign=middle;spacingLeft=4;spacingRight=4;overflow=hidden;points=[[0,0.5],[1,0.5]];portConstraint=eastwest;rotatable=0;" vertex="1" parent="w3vNCRA3c7-lEFl0p3KB-49">
                    <mxGeometry y="60" width="140" height="30" as="geometry"/>
                </mxCell>
                <mxCell id="w3vNCRA3c7-lEFl0p3KB-56" value="bus" style="swimlane;fontStyle=0;childLayout=stackLayout;horizontal=1;startSize=30;horizontalStack=0;resizeParent=1;resizeParentMax=0;resizeLast=0;collapsible=1;marginBottom=0;" vertex="1" parent="CJqYRixQldHfy-TUdPhN-1">
                    <mxGeometry x="618" y="60" width="140" height="180" as="geometry"/>
                </mxCell>
                <mxCell id="w3vNCRA3c7-lEFl0p3KB-57" value="id" style="text;strokeColor=none;fillColor=none;align=left;verticalAlign=middle;spacingLeft=4;spacingRight=4;overflow=hidden;points=[[0,0.5],[1,0.5]];portConstraint=eastwest;rotatable=0;" vertex="1" parent="w3vNCRA3c7-lEFl0p3KB-56">
                    <mxGeometry y="30" width="140" height="30" as="geometry"/>
                </mxCell>
                <mxCell id="w3vNCRA3c7-lEFl0p3KB-59" value="brand" style="text;strokeColor=none;fillColor=none;align=left;verticalAlign=middle;spacingLeft=4;spacingRight=4;overflow=hidden;points=[[0,0.5],[1,0.5]];portConstraint=eastwest;rotatable=0;" vertex="1" parent="w3vNCRA3c7-lEFl0p3KB-56">
                    <mxGeometry y="60" width="140" height="30" as="geometry"/>
                </mxCell>
                <mxCell id="w3vNCRA3c7-lEFl0p3KB-60" value="model" style="text;strokeColor=none;fillColor=none;align=left;verticalAlign=middle;spacingLeft=4;spacingRight=4;overflow=hidden;points=[[0,0.5],[1,0.5]];portConstraint=eastwest;rotatable=0;" vertex="1" parent="w3vNCRA3c7-lEFl0p3KB-56">
                    <mxGeometry y="90" width="140" height="30" as="geometry"/>
                </mxCell>
                <mxCell id="w3vNCRA3c7-lEFl0p3KB-61" value="driver" style="text;strokeColor=none;fillColor=none;align=left;verticalAlign=middle;spacingLeft=4;spacingRight=4;overflow=hidden;points=[[0,0.5],[1,0.5]];portConstraint=eastwest;rotatable=0;" vertex="1" parent="w3vNCRA3c7-lEFl0p3KB-56">
                    <mxGeometry y="120" width="140" height="30" as="geometry"/>
                </mxCell>
                <mxCell id="w3vNCRA3c7-lEFl0p3KB-58" value="route_id" style="text;strokeColor=none;fillColor=none;align=left;verticalAlign=middle;spacingLeft=4;spacingRight=4;overflow=hidden;points=[[0,0.5],[1,0.5]];portConstraint=eastwest;rotatable=0;" vertex="1" parent="w3vNCRA3c7-lEFl0p3KB-56">
                    <mxGeometry y="150" width="140" height="30" as="geometry"/>
                </mxCell>
                <mxCell id="w3vNCRA3c7-lEFl0p3KB-62" style="edgeStyle=orthogonalEdgeStyle;html=1;entryX=0;entryY=0.5;entryDx=0;entryDy=0;" edge="1" parent="CJqYRixQldHfy-TUdPhN-1" source="w3vNCRA3c7-lEFl0p3KB-47" target="w3vNCRA3c7-lEFl0p3KB-50">
                    <mxGeometry relative="1" as="geometry"/>
                </mxCell>
                <mxCell id="w3vNCRA3c7-lEFl0p3KB-63" style="edgeStyle=orthogonalEdgeStyle;html=1;entryX=1;entryY=0.5;entryDx=0;entryDy=0;" edge="1" parent="CJqYRixQldHfy-TUdPhN-1" source="w3vNCRA3c7-lEFl0p3KB-48" target="w3vNCRA3c7-lEFl0p3KB-40">
                    <mxGeometry relative="1" as="geometry"/>
                </mxCell>
                <mxCell id="w3vNCRA3c7-lEFl0p3KB-64" style="edgeStyle=orthogonalEdgeStyle;html=1;entryX=1;entryY=0.5;entryDx=0;entryDy=0;" edge="1" parent="CJqYRixQldHfy-TUdPhN-1" source="w3vNCRA3c7-lEFl0p3KB-58" target="w3vNCRA3c7-lEFl0p3KB-50">
                    <mxGeometry relative="1" as="geometry"/>
                </mxCell>
            </root>
        </mxGraphModel>
    </diagram>
    <diagram id="CEf7C4xhImNFZ-uWHBLE" name="Page-4">
        <mxGraphModel dx="814" dy="478" grid="1" gridSize="10" guides="1" tooltips="1" connect="1" arrows="1" fold="1" page="1" pageScale="1" pageWidth="827" pageHeight="1169" math="0" shadow="0">
            <root>
                <mxCell id="15XzaJT5Nwwyiih1pCAx-0"/>
                <mxCell id="15XzaJT5Nwwyiih1pCAx-1" parent="15XzaJT5Nwwyiih1pCAx-0"/>
                <mxCell id="tnfQiD4kEBXVWjHwRuw_-0" value="city" style="swimlane;fontStyle=0;childLayout=stackLayout;horizontal=1;startSize=30;horizontalStack=0;resizeParent=1;resizeParentMax=0;resizeLast=0;collapsible=1;marginBottom=0;" vertex="1" parent="15XzaJT5Nwwyiih1pCAx-1">
                    <mxGeometry x="68" y="60" width="140" height="90" as="geometry"/>
                </mxCell>
                <mxCell id="tnfQiD4kEBXVWjHwRuw_-1" value="id int PK" style="text;strokeColor=none;fillColor=none;align=left;verticalAlign=middle;spacingLeft=4;spacingRight=4;overflow=hidden;points=[[0,0.5],[1,0.5]];portConstraint=eastwest;rotatable=0;" vertex="1" parent="tnfQiD4kEBXVWjHwRuw_-0">
                    <mxGeometry y="30" width="140" height="30" as="geometry"/>
                </mxCell>
                <mxCell id="tnfQiD4kEBXVWjHwRuw_-2" value="name varchar" style="text;strokeColor=none;fillColor=none;align=left;verticalAlign=middle;spacingLeft=4;spacingRight=4;overflow=hidden;points=[[0,0.5],[1,0.5]];portConstraint=eastwest;rotatable=0;" vertex="1" parent="tnfQiD4kEBXVWjHwRuw_-0">
                    <mxGeometry y="60" width="140" height="30" as="geometry"/>
                </mxCell>
                <mxCell id="tnfQiD4kEBXVWjHwRuw_-3" value="stops" style="swimlane;fontStyle=0;childLayout=stackLayout;horizontal=1;startSize=30;horizontalStack=0;resizeParent=1;resizeParentMax=0;resizeLast=0;collapsible=1;marginBottom=0;" vertex="1" parent="15XzaJT5Nwwyiih1pCAx-1">
                    <mxGeometry x="248" y="60" width="140" height="150" as="geometry"/>
                </mxCell>
                <mxCell id="tnfQiD4kEBXVWjHwRuw_-4" value="id int PK" style="text;strokeColor=none;fillColor=none;align=left;verticalAlign=middle;spacingLeft=4;spacingRight=4;overflow=hidden;points=[[0,0.5],[1,0.5]];portConstraint=eastwest;rotatable=0;" vertex="1" parent="tnfQiD4kEBXVWjHwRuw_-3">
                    <mxGeometry y="30" width="140" height="30" as="geometry"/>
                </mxCell>
                <mxCell id="tnfQiD4kEBXVWjHwRuw_-5" value="location varchar" style="text;strokeColor=none;fillColor=none;align=left;verticalAlign=middle;spacingLeft=4;spacingRight=4;overflow=hidden;points=[[0,0.5],[1,0.5]];portConstraint=eastwest;rotatable=0;" vertex="1" parent="tnfQiD4kEBXVWjHwRuw_-3">
                    <mxGeometry y="60" width="140" height="30" as="geometry"/>
                </mxCell>
                <mxCell id="tnfQiD4kEBXVWjHwRuw_-6" value="route_id int" style="text;strokeColor=none;fillColor=none;align=left;verticalAlign=middle;spacingLeft=4;spacingRight=4;overflow=hidden;points=[[0,0.5],[1,0.5]];portConstraint=eastwest;rotatable=0;" vertex="1" parent="tnfQiD4kEBXVWjHwRuw_-3">
                    <mxGeometry y="90" width="140" height="30" as="geometry"/>
                </mxCell>
                <mxCell id="tnfQiD4kEBXVWjHwRuw_-7" value="city_id int" style="text;strokeColor=none;fillColor=none;align=left;verticalAlign=middle;spacingLeft=4;spacingRight=4;overflow=hidden;points=[[0,0.5],[1,0.5]];portConstraint=eastwest;rotatable=0;" vertex="1" parent="tnfQiD4kEBXVWjHwRuw_-3">
                    <mxGeometry y="120" width="140" height="30" as="geometry"/>
                </mxCell>
                <mxCell id="tnfQiD4kEBXVWjHwRuw_-8" value="route" style="swimlane;fontStyle=0;childLayout=stackLayout;horizontal=1;startSize=30;horizontalStack=0;resizeParent=1;resizeParentMax=0;resizeLast=0;collapsible=1;marginBottom=0;" vertex="1" parent="15XzaJT5Nwwyiih1pCAx-1">
                    <mxGeometry x="432" y="60" width="140" height="90" as="geometry"/>
                </mxCell>
                <mxCell id="tnfQiD4kEBXVWjHwRuw_-9" value="id int PK" style="text;strokeColor=none;fillColor=none;align=left;verticalAlign=middle;spacingLeft=4;spacingRight=4;overflow=hidden;points=[[0,0.5],[1,0.5]];portConstraint=eastwest;rotatable=0;" vertex="1" parent="tnfQiD4kEBXVWjHwRuw_-8">
                    <mxGeometry y="30" width="140" height="30" as="geometry"/>
                </mxCell>
                <mxCell id="tnfQiD4kEBXVWjHwRuw_-10" value="route_in_km int" style="text;strokeColor=none;fillColor=none;align=left;verticalAlign=middle;spacingLeft=4;spacingRight=4;overflow=hidden;points=[[0,0.5],[1,0.5]];portConstraint=eastwest;rotatable=0;" vertex="1" parent="tnfQiD4kEBXVWjHwRuw_-8">
                    <mxGeometry y="60" width="140" height="30" as="geometry"/>
                </mxCell>
                <mxCell id="tnfQiD4kEBXVWjHwRuw_-11" value="bus" style="swimlane;fontStyle=0;childLayout=stackLayout;horizontal=1;startSize=30;horizontalStack=0;resizeParent=1;resizeParentMax=0;resizeLast=0;collapsible=1;marginBottom=0;" vertex="1" parent="15XzaJT5Nwwyiih1pCAx-1">
                    <mxGeometry x="618" y="60" width="140" height="180" as="geometry"/>
                </mxCell>
                <mxCell id="tnfQiD4kEBXVWjHwRuw_-12" value="id int PK" style="text;strokeColor=none;fillColor=none;align=left;verticalAlign=middle;spacingLeft=4;spacingRight=4;overflow=hidden;points=[[0,0.5],[1,0.5]];portConstraint=eastwest;rotatable=0;" vertex="1" parent="tnfQiD4kEBXVWjHwRuw_-11">
                    <mxGeometry y="30" width="140" height="30" as="geometry"/>
                </mxCell>
                <mxCell id="tnfQiD4kEBXVWjHwRuw_-13" value="brand varchar" style="text;strokeColor=none;fillColor=none;align=left;verticalAlign=middle;spacingLeft=4;spacingRight=4;overflow=hidden;points=[[0,0.5],[1,0.5]];portConstraint=eastwest;rotatable=0;" vertex="1" parent="tnfQiD4kEBXVWjHwRuw_-11">
                    <mxGeometry y="60" width="140" height="30" as="geometry"/>
                </mxCell>
                <mxCell id="tnfQiD4kEBXVWjHwRuw_-14" value="model varchar" style="text;strokeColor=none;fillColor=none;align=left;verticalAlign=middle;spacingLeft=4;spacingRight=4;overflow=hidden;points=[[0,0.5],[1,0.5]];portConstraint=eastwest;rotatable=0;" vertex="1" parent="tnfQiD4kEBXVWjHwRuw_-11">
                    <mxGeometry y="90" width="140" height="30" as="geometry"/>
                </mxCell>
                <mxCell id="tnfQiD4kEBXVWjHwRuw_-15" value="driver varchar" style="text;strokeColor=none;fillColor=none;align=left;verticalAlign=middle;spacingLeft=4;spacingRight=4;overflow=hidden;points=[[0,0.5],[1,0.5]];portConstraint=eastwest;rotatable=0;" vertex="1" parent="tnfQiD4kEBXVWjHwRuw_-11">
                    <mxGeometry y="120" width="140" height="30" as="geometry"/>
                </mxCell>
                <mxCell id="tnfQiD4kEBXVWjHwRuw_-16" value="route_id int" style="text;strokeColor=none;fillColor=none;align=left;verticalAlign=middle;spacingLeft=4;spacingRight=4;overflow=hidden;points=[[0,0.5],[1,0.5]];portConstraint=eastwest;rotatable=0;" vertex="1" parent="tnfQiD4kEBXVWjHwRuw_-11">
                    <mxGeometry y="150" width="140" height="30" as="geometry"/>
                </mxCell>
                <mxCell id="tnfQiD4kEBXVWjHwRuw_-17" style="edgeStyle=orthogonalEdgeStyle;html=1;entryX=0;entryY=0.5;entryDx=0;entryDy=0;" edge="1" parent="15XzaJT5Nwwyiih1pCAx-1" source="tnfQiD4kEBXVWjHwRuw_-6" target="tnfQiD4kEBXVWjHwRuw_-9">
                    <mxGeometry relative="1" as="geometry"/>
                </mxCell>
                <mxCell id="tnfQiD4kEBXVWjHwRuw_-18" style="edgeStyle=orthogonalEdgeStyle;html=1;entryX=1;entryY=0.5;entryDx=0;entryDy=0;" edge="1" parent="15XzaJT5Nwwyiih1pCAx-1" source="tnfQiD4kEBXVWjHwRuw_-7" target="tnfQiD4kEBXVWjHwRuw_-1">
                    <mxGeometry relative="1" as="geometry"/>
                </mxCell>
                <mxCell id="tnfQiD4kEBXVWjHwRuw_-19" style="edgeStyle=orthogonalEdgeStyle;html=1;entryX=1;entryY=0.5;entryDx=0;entryDy=0;" edge="1" parent="15XzaJT5Nwwyiih1pCAx-1" source="tnfQiD4kEBXVWjHwRuw_-16" target="tnfQiD4kEBXVWjHwRuw_-9">
                    <mxGeometry relative="1" as="geometry"/>
                </mxCell>
            </root>
        </mxGraphModel>
    </diagram>
</mxfile>